<?xml version="1.0" encoding="UTF-8" standalone="no"?>
<!DOCTYPE svg PUBLIC "-//W3C//DTD SVG 1.1//EN"
 "http://www.w3.org/Graphics/SVG/1.1/DTD/svg11.dtd">
<!-- Generated by graphviz version 2.43.0 (0)
 -->
<!-- Title: G Pages: 1 -->
<svg width="90pt" height="260pt"
 viewBox="0.00 0.00 90.00 260.00" xmlns="http://www.w3.org/2000/svg" xmlns:xlink="http://www.w3.org/1999/xlink">
<g id="graph0" class="graph" transform="scale(1 1) rotate(0) translate(4 256)">
<title>G</title>
<polygon fill="transparent" stroke="transparent" points="-4,4 -4,-256 86,-256 86,4 -4,4"/>
<!-- 1 -->
<g id="node1" class="node">
<title>1</title>
<ellipse fill="none" stroke="black" cx="27" cy="-234" rx="27" ry="18"/>
<text text-anchor="middle" x="27" y="-230.3" font-family="Times,serif" font-size="14.00">1</text>
</g>
<!-- 4 -->
<g id="node2" class="node">
<title>4</title>
<ellipse fill="none" stroke="black" cx="27" cy="-18" rx="27" ry="18"/>
<text text-anchor="middle" x="27" y="-14.3" font-family="Times,serif" font-size="14.00">4</text>
</g>
<!-- 1&#45;&gt;4 -->
<g id="edge1" class="edge">
<title>1&#45;&gt;4</title>
<path fill="none" stroke="black" d="M23.75,-215.89C21.95,-205.54 19.91,-192.06 19,-180 15.41,-132.13 15.41,-119.87 19,-72 19.64,-63.52 20.84,-54.34 22.12,-46.04"/>
<polygon fill="black" stroke="black" points="25.58,-46.55 23.75,-36.11 18.68,-45.41 25.58,-46.55"/>
</g>
<!-- 3 -->
<g id="node3" class="node">
<title>3</title>
<ellipse fill="none" stroke="black" cx="55" cy="-162" rx="27" ry="18"/>
<text text-anchor="middle" x="55" y="-158.3" font-family="Times,serif" font-size="14.00">3</text>
</g>
<!-- 1&#45;&gt;3 -->
<g id="edge2" class="edge">
<title>1&#45;&gt;3</title>
<path fill="none" stroke="black" d="M33.64,-216.41C36.91,-208.22 40.94,-198.14 44.62,-188.95"/>
<polygon fill="black" stroke="black" points="47.95,-190.05 48.41,-179.47 41.45,-187.45 47.95,-190.05"/>
</g>
<!-- 2 -->
<g id="node4" class="node">
<title>2</title>
<ellipse fill="none" stroke="black" cx="55" cy="-90" rx="27" ry="18"/>
<text text-anchor="middle" x="55" y="-86.3" font-family="Times,serif" font-size="14.00">2</text>
</g>
<!-- 3&#45;&gt;2 -->
<g id="edge3" class="edge">
<title>3&#45;&gt;2</title>
<path fill="none" stroke="black" d="M49.16,-144.41C48.3,-136.51 48.05,-126.85 48.41,-117.94"/>
<polygon fill="black" stroke="black" points="51.9,-118.18 49.12,-107.96 44.92,-117.68 51.9,-118.18"/>
</g>
<!-- 2&#45;&gt;4 -->
<g id="edge5" class="edge">
<title>2&#45;&gt;4</title>
<path fill="none" stroke="black" d="M48.36,-72.41C45.09,-64.22 41.06,-54.14 37.38,-44.95"/>
<polygon fill="black" stroke="black" points="40.55,-43.45 33.59,-35.47 34.05,-46.05 40.55,-43.45"/>
</g>
<!-- 2&#45;&gt;3 -->
<g id="edge4" class="edge">
<title>2&#45;&gt;3</title>
<path fill="none" stroke="black" d="M60.88,-107.96C61.71,-115.83 61.95,-125.37 61.58,-134.19"/>
<polygon fill="black" stroke="black" points="58.07,-134.18 60.84,-144.41 65.06,-134.69 58.07,-134.18"/>
</g>
</g>
</svg>
