<?xml version="1.0" encoding="UTF-8" standalone="no"?>
<!DOCTYPE svg PUBLIC "-//W3C//DTD SVG 1.1//EN"
 "http://www.w3.org/Graphics/SVG/1.1/DTD/svg11.dtd">
<!-- Generated by graphviz version 2.43.0 (0)
 -->
<!-- Title: G Pages: 1 -->
<svg width="208pt" height="188pt"
 viewBox="0.00 0.00 207.99 188.00" xmlns="http://www.w3.org/2000/svg" xmlns:xlink="http://www.w3.org/1999/xlink">
<g id="graph0" class="graph" transform="scale(1 1) rotate(0) translate(4 184)">
<title>G</title>
<polygon fill="transparent" stroke="transparent" points="-4,4 -4,-184 203.99,-184 203.99,4 -4,4"/>
<!-- 1 -->
<g id="node1" class="node">
<title>1</title>
<ellipse fill="none" stroke="black" cx="75.84" cy="-162" rx="27" ry="18"/>
<text text-anchor="middle" x="75.84" y="-158.3" font-family="Times,serif" font-size="14.00">1</text>
</g>
<!-- k -->
<g id="node2" class="node">
<title>k</title>
<ellipse fill="none" stroke="black" cx="75.84" cy="-90" rx="27" ry="18"/>
<text text-anchor="middle" x="75.84" y="-86.3" font-family="Times,serif" font-size="14.00">k</text>
</g>
<!-- 1&#45;&gt;k -->
<g id="edge1" class="edge">
<title>1&#45;&gt;k</title>
<path fill="none" stroke="black" d="M70,-144.41C69.14,-136.51 68.89,-126.85 69.26,-117.94"/>
<polygon fill="black" stroke="black" points="72.75,-118.18 69.97,-107.96 65.77,-117.68 72.75,-118.18"/>
</g>
<!-- 2 -->
<g id="node4" class="node">
<title>2</title>
<ellipse fill="none" stroke="black" cx="156.84" cy="-90" rx="27" ry="18"/>
<text text-anchor="middle" x="156.84" y="-86.3" font-family="Times,serif" font-size="14.00">2</text>
</g>
<!-- 1&#45;&gt;2 -->
<g id="edge4" class="edge">
<title>1&#45;&gt;2</title>
<path fill="none" stroke="black" d="M91.85,-147.17C103.61,-137.01 119.78,-123.03 133.05,-111.56"/>
<polygon fill="black" stroke="black" points="135.6,-113.99 140.88,-104.8 131.02,-108.69 135.6,-113.99"/>
</g>
<!-- k&#45;&gt;1 -->
<g id="edge3" class="edge">
<title>k&#45;&gt;1</title>
<path fill="none" stroke="black" d="M81.72,-107.96C82.56,-115.83 82.79,-125.37 82.43,-134.19"/>
<polygon fill="black" stroke="black" points="78.92,-134.18 81.68,-144.41 85.9,-134.69 78.92,-134.18"/>
</g>
<!-- elsewhere -->
<g id="node3" class="node">
<title>elsewhere</title>
<ellipse fill="none" stroke="black" cx="57.84" cy="-18" rx="57.69" ry="18"/>
<text text-anchor="middle" x="57.84" y="-14.3" font-family="Times,serif" font-size="14.00">elsewhere</text>
</g>
<!-- k&#45;&gt;elsewhere -->
<g id="edge2" class="edge">
<title>k&#45;&gt;elsewhere</title>
<path fill="none" stroke="black" d="M71.49,-72.05C69.48,-64.26 67.06,-54.82 64.81,-46.08"/>
<polygon fill="black" stroke="black" points="68.17,-45.09 62.29,-36.28 61.39,-46.83 68.17,-45.09"/>
</g>
<!-- done -->
<g id="node5" class="node">
<title>done</title>
<ellipse fill="none" stroke="black" cx="166.84" cy="-18" rx="33.29" ry="18"/>
<text text-anchor="middle" x="166.84" y="-14.3" font-family="Times,serif" font-size="14.00">done</text>
</g>
<!-- 2&#45;&gt;done -->
<g id="edge5" class="edge">
<title>2&#45;&gt;done</title>
<path fill="none" stroke="black" d="M159.27,-72.05C160.37,-64.35 161.7,-55.03 162.94,-46.36"/>
<polygon fill="black" stroke="black" points="166.43,-46.67 164.38,-36.28 159.5,-45.68 166.43,-46.67"/>
</g>
</g>
</svg>
