<?xml version="1.0" encoding="UTF-8" standalone="no"?>
<!DOCTYPE svg PUBLIC "-//W3C//DTD SVG 1.1//EN"
 "http://www.w3.org/Graphics/SVG/1.1/DTD/svg11.dtd">
<!-- Generated by graphviz version 2.43.0 (0)
 -->
<!-- Title: G Pages: 1 -->
<svg width="290pt" height="98pt"
 viewBox="0.00 0.00 290.00 98.00" xmlns="http://www.w3.org/2000/svg" xmlns:xlink="http://www.w3.org/1999/xlink">
<g id="graph0" class="graph" transform="scale(1 1) rotate(0) translate(4 94)">
<title>G</title>
<polygon fill="transparent" stroke="transparent" points="-4,4 -4,-94 286,-94 286,4 -4,4"/>
<!-- A -->
<g id="node1" class="node">
<title>A</title>
<ellipse fill="none" stroke="black" cx="27" cy="-45" rx="27" ry="18"/>
<text text-anchor="middle" x="27" y="-41.3" font-family="Times,serif" font-size="14.00">P</text>
</g>
<!-- B -->
<g id="node2" class="node">
<title>B</title>
<ellipse fill="none" stroke="black" cx="141" cy="-72" rx="27" ry="18"/>
<text text-anchor="middle" x="141" y="-68.3" font-family="Times,serif" font-size="14.00">Q</text>
</g>
<!-- A&#45;&gt;B -->
<g id="edge1" class="edge">
<title>A&#45;&gt;B</title>
<path fill="none" stroke="black" d="M52.58,-50.93C68.04,-54.65 88.23,-59.52 105.32,-63.64"/>
<polygon fill="black" stroke="black" points="104.94,-67.15 115.48,-66.09 106.58,-60.34 104.94,-67.15"/>
<text text-anchor="middle" x="84" y="-63.8" font-family="Times,serif" font-size="14.00">opt</text>
</g>
<!-- C -->
<g id="node3" class="node">
<title>C</title>
<ellipse fill="none" stroke="black" cx="141" cy="-18" rx="27" ry="18"/>
<text text-anchor="middle" x="141" y="-14.3" font-family="Times,serif" font-size="14.00">P&#39;</text>
</g>
<!-- A&#45;&gt;C -->
<g id="edge2" class="edge">
<title>A&#45;&gt;C</title>
<path fill="none" stroke="black" d="M52.58,-39.07C68.04,-35.35 88.23,-30.48 105.32,-26.36"/>
<polygon fill="black" stroke="black" points="106.58,-29.66 115.48,-23.91 104.94,-22.85 106.58,-29.66"/>
<text text-anchor="middle" x="84" y="-36.8" font-family="Times,serif" font-size="14.00">diff</text>
</g>
<!-- D -->
<g id="node4" class="node">
<title>D</title>
<ellipse fill="none" stroke="black" cx="255" cy="-45" rx="27" ry="18"/>
<text text-anchor="middle" x="255" y="-41.3" font-family="Times,serif" font-size="14.00">Q&#39;</text>
</g>
<!-- B&#45;&gt;D -->
<g id="edge3" class="edge">
<title>B&#45;&gt;D</title>
<path fill="none" stroke="black" d="M166.58,-66.07C182.04,-62.35 202.23,-57.48 219.32,-53.36"/>
<polygon fill="black" stroke="black" points="220.58,-56.66 229.48,-50.91 218.94,-49.85 220.58,-56.66"/>
<text text-anchor="middle" x="198" y="-63.8" font-family="Times,serif" font-size="14.00">diff</text>
</g>
<!-- C&#45;&gt;D -->
<g id="edge4" class="edge">
<title>C&#45;&gt;D</title>
<path fill="none" stroke="black" d="M166.58,-23.93C182.04,-27.65 202.23,-32.52 219.32,-36.64"/>
<polygon fill="black" stroke="black" points="218.94,-40.15 229.48,-39.09 220.58,-33.34 218.94,-40.15"/>
<text text-anchor="middle" x="198" y="-36.8" font-family="Times,serif" font-size="14.00">opt</text>
</g>
</g>
</svg>
