<?xml version="1.0" encoding="UTF-8" standalone="no"?>
<!DOCTYPE svg PUBLIC "-//W3C//DTD SVG 1.1//EN"
 "http://www.w3.org/Graphics/SVG/1.1/DTD/svg11.dtd">
<!-- Generated by graphviz version 2.50.0 (20211204.2007)
 -->
<!-- Title: G Pages: 1 -->
<svg width="206pt" height="116pt"
 viewBox="0.00 0.00 206.00 116.00" xmlns="http://www.w3.org/2000/svg" xmlns:xlink="http://www.w3.org/1999/xlink">
<g id="graph0" class="graph" transform="scale(1 1) rotate(0) translate(4 112)">
<title>G</title>
<polygon fill="transparent" stroke="transparent" points="-4,4 -4,-112 202,-112 202,4 -4,4"/>
<!-- X0 -->
<g id="node1" class="node">
<title>X0</title>
<ellipse fill="none" stroke="black" cx="27" cy="-90" rx="27" ry="18"/>
<text text-anchor="middle" x="27" y="-86.3" font-family="Times,serif" font-size="14.00">X0</text>
</g>
<!-- X1 -->
<g id="node2" class="node">
<title>X1</title>
<ellipse fill="none" stroke="black" cx="99" cy="-90" rx="27" ry="18"/>
<text text-anchor="middle" x="99" y="-86.3" font-family="Times,serif" font-size="14.00">X1</text>
</g>
<!-- X0&#45;&gt;X1 -->
<g id="edge1" class="edge">
<title>X0&#45;&gt;X1</title>
<path fill="none" stroke="black" d="M54,-90C56.61,-90 59.23,-90 61.84,-90"/>
<polygon fill="black" stroke="black" points="61.93,-93.5 71.93,-90 61.93,-86.5 61.93,-93.5"/>
</g>
<!-- Y0 -->
<g id="node4" class="node">
<title>Y0</title>
<ellipse fill="none" stroke="black" cx="27" cy="-18" rx="27" ry="18"/>
<text text-anchor="middle" x="27" y="-14.3" font-family="Times,serif" font-size="14.00">Y0</text>
</g>
<!-- X0&#45;&gt;Y0 -->
<g id="edge3" class="edge">
<title>X0&#45;&gt;Y0</title>
<path fill="none" stroke="black" d="M27,-71.7C27,-63.98 27,-54.71 27,-46.11"/>
<polygon fill="black" stroke="black" points="30.5,-46.1 27,-36.1 23.5,-46.1 30.5,-46.1"/>
</g>
<!-- X2 -->
<g id="node3" class="node">
<title>X2</title>
<ellipse fill="none" stroke="black" cx="171" cy="-90" rx="27" ry="18"/>
<text text-anchor="middle" x="171" y="-86.3" font-family="Times,serif" font-size="14.00">X2</text>
</g>
<!-- X1&#45;&gt;X2 -->
<g id="edge2" class="edge">
<title>X1&#45;&gt;X2</title>
<path fill="none" stroke="black" d="M126,-90C128.61,-90 131.23,-90 133.84,-90"/>
<polygon fill="black" stroke="black" points="133.93,-93.5 143.93,-90 133.93,-86.5 133.93,-93.5"/>
</g>
<!-- Y1 -->
<g id="node5" class="node">
<title>Y1</title>
<ellipse fill="none" stroke="black" cx="99" cy="-18" rx="27" ry="18"/>
<text text-anchor="middle" x="99" y="-14.3" font-family="Times,serif" font-size="14.00">Y1</text>
</g>
<!-- X1&#45;&gt;Y1 -->
<g id="edge4" class="edge">
<title>X1&#45;&gt;Y1</title>
<path fill="none" stroke="black" d="M99,-71.7C99,-63.98 99,-54.71 99,-46.11"/>
<polygon fill="black" stroke="black" points="102.5,-46.1 99,-36.1 95.5,-46.1 102.5,-46.1"/>
</g>
<!-- Y2 -->
<g id="node6" class="node">
<title>Y2</title>
<ellipse fill="none" stroke="black" cx="171" cy="-18" rx="27" ry="18"/>
<text text-anchor="middle" x="171" y="-14.3" font-family="Times,serif" font-size="14.00">Y2</text>
</g>
<!-- X2&#45;&gt;Y2 -->
<g id="edge5" class="edge">
<title>X2&#45;&gt;Y2</title>
<path fill="none" stroke="black" d="M171,-71.7C171,-63.98 171,-54.71 171,-46.11"/>
<polygon fill="black" stroke="black" points="174.5,-46.1 171,-36.1 167.5,-46.1 174.5,-46.1"/>
</g>
</g>
</svg>
