<?xml version="1.0" encoding="UTF-8" standalone="no"?>
<!DOCTYPE svg PUBLIC "-//W3C//DTD SVG 1.1//EN"
 "http://www.w3.org/Graphics/SVG/1.1/DTD/svg11.dtd">
<!-- Generated by graphviz version 2.50.0 (20211204.2007)
 -->
<!-- Title: G Pages: 1 -->
<svg width="174pt" height="188pt"
 viewBox="0.00 0.00 174.09 188.00" xmlns="http://www.w3.org/2000/svg" xmlns:xlink="http://www.w3.org/1999/xlink">
<g id="graph0" class="graph" transform="scale(1 1) rotate(0) translate(4 184)">
<title>G</title>
<polygon fill="transparent" stroke="transparent" points="-4,4 -4,-184 170.09,-184 170.09,4 -4,4"/>
<!-- 1 -->
<g id="node1" class="node">
<title>1</title>
<ellipse fill="none" stroke="black" cx="51.15" cy="-162" rx="27" ry="18"/>
<text text-anchor="middle" x="51.15" y="-158.3" font-family="Times,serif" font-size="14.00">1</text>
</g>
<!-- k -->
<g id="node2" class="node">
<title>k</title>
<ellipse fill="none" stroke="black" cx="51.15" cy="-90" rx="27" ry="18"/>
<text text-anchor="middle" x="51.15" y="-86.3" font-family="Times,serif" font-size="14.00">k</text>
</g>
<!-- 1&#45;&gt;k -->
<g id="edge1" class="edge">
<title>1&#45;&gt;k</title>
<path fill="none" stroke="black" d="M45.31,-144.41C44.44,-136.51 44.19,-126.85 44.56,-117.94"/>
<polygon fill="black" stroke="black" points="48.05,-118.18 45.27,-107.96 41.07,-117.68 48.05,-118.18"/>
</g>
<!-- 2 -->
<g id="node4" class="node">
<title>2</title>
<ellipse fill="none" stroke="black" cx="133.15" cy="-90" rx="27" ry="18"/>
<text text-anchor="middle" x="133.15" y="-86.3" font-family="Times,serif" font-size="14.00">2</text>
</g>
<!-- 1&#45;&gt;2 -->
<g id="edge4" class="edge">
<title>1&#45;&gt;2</title>
<path fill="none" stroke="black" d="M67.35,-147.17C79.33,-136.94 95.84,-122.85 109.32,-111.34"/>
<polygon fill="black" stroke="black" points="111.92,-113.72 117.26,-104.56 107.38,-108.39 111.92,-113.72"/>
</g>
<!-- k&#45;&gt;1 -->
<g id="edge3" class="edge">
<title>k&#45;&gt;1</title>
<path fill="none" stroke="black" d="M57.03,-107.96C57.86,-115.83 58.09,-125.37 57.73,-134.19"/>
<polygon fill="black" stroke="black" points="54.22,-134.18 56.99,-144.41 61.2,-134.69 54.22,-134.18"/>
</g>
<!-- elsewhere -->
<g id="node3" class="node">
<title>elsewhere</title>
<ellipse fill="none" stroke="black" cx="46.15" cy="-18" rx="46.29" ry="18"/>
<text text-anchor="middle" x="46.15" y="-14.3" font-family="Times,serif" font-size="14.00">elsewhere</text>
</g>
<!-- k&#45;&gt;elsewhere -->
<g id="edge2" class="edge">
<title>k&#45;&gt;elsewhere</title>
<path fill="none" stroke="black" d="M49.91,-71.7C49.36,-63.98 48.7,-54.71 48.08,-46.11"/>
<polygon fill="black" stroke="black" points="51.57,-45.83 47.37,-36.1 44.59,-46.33 51.57,-45.83"/>
</g>
<!-- done -->
<g id="node5" class="node">
<title>done</title>
<ellipse fill="none" stroke="black" cx="138.15" cy="-18" rx="27.9" ry="18"/>
<text text-anchor="middle" x="138.15" y="-14.3" font-family="Times,serif" font-size="14.00">done</text>
</g>
<!-- 2&#45;&gt;done -->
<g id="edge5" class="edge">
<title>2&#45;&gt;done</title>
<path fill="none" stroke="black" d="M134.38,-71.7C134.93,-63.98 135.6,-54.71 136.21,-46.11"/>
<polygon fill="black" stroke="black" points="139.7,-46.33 136.92,-36.1 132.72,-45.83 139.7,-46.33"/>
</g>
</g>
</svg>
