<?xml version="1.0" encoding="UTF-8" standalone="no"?>
<!DOCTYPE svg PUBLIC "-//W3C//DTD SVG 1.1//EN"
 "http://www.w3.org/Graphics/SVG/1.1/DTD/svg11.dtd">
<!-- Generated by graphviz version 2.50.0 (20211204.2007)
 -->
<!-- Title: G Pages: 1 -->
<svg width="494pt" height="188pt"
 viewBox="0.00 0.00 494.00 188.00" xmlns="http://www.w3.org/2000/svg" xmlns:xlink="http://www.w3.org/1999/xlink">
<g id="graph0" class="graph" transform="scale(1 1) rotate(0) translate(4 184)">
<title>G</title>
<polygon fill="transparent" stroke="transparent" points="-4,4 -4,-184 490,-184 490,4 -4,4"/>
<!-- 732177606909767725 -->
<g id="node1" class="node">
<title>732177606909767725</title>
<polygon fill="lightgrey" stroke="black" points="108,-180 0,-180 0,-144 108,-144 108,-180"/>
<text text-anchor="middle" x="54" y="-164.6" font-family="Times,serif" font-size="8.00">Generalized algebraic</text>
<text text-anchor="middle" x="54" y="-155.6" font-family="Times,serif" font-size="8.00">data types</text>
</g>
<!-- 289035602837840169 -->
<g id="node2" class="node">
<title>289035602837840169</title>
<polygon fill="lightgrey" stroke="black" points="234,-180 126,-180 126,-144 234,-144 234,-180"/>
<text text-anchor="middle" x="180" y="-164.6" font-family="Times,serif" font-size="8.00">Some thoughts about</text>
<text text-anchor="middle" x="180" y="-155.6" font-family="Times,serif" font-size="8.00">CPS &amp; SSA</text>
</g>
<!-- 35698629529441969 -->
<g id="node3" class="node">
<title>35698629529441969</title>
<polygon fill="lightgrey" stroke="black" points="319,-108 211,-108 211,-72 319,-72 319,-108"/>
<text text-anchor="middle" x="265" y="-92.6" font-family="Times,serif" font-size="8.00">Notes on sequential</text>
<text text-anchor="middle" x="265" y="-83.6" font-family="Times,serif" font-size="8.00">Monte Carlo</text>
</g>
<!-- 840031216919356538 -->
<g id="node4" class="node">
<title>840031216919356538</title>
<polygon fill="lightgrey" stroke="black" points="360,-36 252,-36 252,0 360,0 360,-36"/>
<text text-anchor="middle" x="306" y="-20.6" font-family="Times,serif" font-size="8.00">The unreasonable effectiveness</text>
<text text-anchor="middle" x="306" y="-11.6" font-family="Times,serif" font-size="8.00">of rejuvenation move SMC</text>
</g>
<!-- 35698629529441969&#45;&gt;840031216919356538 -->
<g id="edge1" class="edge">
<title>35698629529441969&#45;&gt;840031216919356538</title>
<path fill="none" stroke="black" d="M275.13,-71.7C279.85,-63.64 285.56,-53.89 290.78,-44.98"/>
<polygon fill="black" stroke="black" points="293.95,-46.5 295.98,-36.1 287.91,-42.96 293.95,-46.5"/>
</g>
<!-- 52629313488915159 -->
<g id="node5" class="node">
<title>52629313488915159</title>
<polygon fill="lightgrey" stroke="black" points="486,-180 378,-180 378,-144 486,-144 486,-180"/>
<text text-anchor="middle" x="432" y="-164.6" font-family="Times,serif" font-size="8.00">Things I want</text>
<text text-anchor="middle" x="432" y="-155.6" font-family="Times,serif" font-size="8.00">in a compiler</text>
</g>
<!-- 329922244094190251 -->
<g id="node6" class="node">
<title>329922244094190251</title>
<polygon fill="lightgrey" stroke="black" points="360,-180 252,-180 252,-144 360,-144 360,-180"/>
<text text-anchor="middle" x="306" y="-164.6" font-family="Times,serif" font-size="8.00">AIDE: towards automatic</text>
<text text-anchor="middle" x="306" y="-155.6" font-family="Times,serif" font-size="8.00">inference tuning</text>
</g>
<!-- 329922244094190251&#45;&gt;35698629529441969 -->
<g id="edge3" class="edge">
<title>329922244094190251&#45;&gt;35698629529441969</title>
<path fill="none" stroke="black" d="M295.87,-143.7C291.15,-135.64 285.44,-125.89 280.22,-116.98"/>
<polygon fill="black" stroke="black" points="283.09,-114.96 275.02,-108.1 277.05,-118.5 283.09,-114.96"/>
</g>
<!-- 329922244094190251&#45;&gt;840031216919356538 -->
<g id="edge2" class="edge">
<title>329922244094190251&#45;&gt;840031216919356538</title>
<path fill="none" stroke="black" d="M315.13,-143.88C320.01,-133.76 325.51,-120.51 328,-108 331.13,-92.31 331.13,-87.69 328,-72 326.21,-63.01 322.86,-53.64 319.31,-45.32"/>
<polygon fill="black" stroke="black" points="322.46,-43.77 315.13,-36.12 316.08,-46.67 322.46,-43.77"/>
</g>
</g>
</svg>
