<?xml version="1.0" encoding="UTF-8" standalone="no"?>
<!DOCTYPE svg PUBLIC "-//W3C//DTD SVG 1.1//EN"
 "http://www.w3.org/Graphics/SVG/1.1/DTD/svg11.dtd">
<!-- Generated by graphviz version 2.50.0 (20211204.2007)
 -->
<!-- Title: G Pages: 1 -->
<svg width="404pt" height="206pt"
 viewBox="0.00 0.00 404.00 206.00" xmlns="http://www.w3.org/2000/svg" xmlns:xlink="http://www.w3.org/1999/xlink">
<g id="graph0" class="graph" transform="scale(1 1) rotate(0) translate(4 202)">
<title>G</title>
<polygon fill="transparent" stroke="transparent" points="-4,4 -4,-202 400,-202 400,4 -4,4"/>
<!-- 732177606909767725 -->
<g id="node1" class="node">
<title>732177606909767725</title>
<polygon fill="lightgrey" stroke="black" points="108,-36 0,-36 0,0 108,0 108,-36"/>
<text text-anchor="middle" x="54" y="-20.6" font-family="Times,serif" font-size="8.00">Generalized algebraic</text>
<text text-anchor="middle" x="54" y="-11.6" font-family="Times,serif" font-size="8.00">data types</text>
</g>
<!-- 289035602837840169 -->
<g id="node2" class="node">
<title>289035602837840169</title>
<polygon fill="lightgrey" stroke="black" points="108,-90 0,-90 0,-54 108,-54 108,-90"/>
<text text-anchor="middle" x="54" y="-74.6" font-family="Times,serif" font-size="8.00">Some thoughts about</text>
<text text-anchor="middle" x="54" y="-65.6" font-family="Times,serif" font-size="8.00">CPS &amp; SSA</text>
</g>
<!-- 35698629529441969 -->
<g id="node3" class="node">
<title>35698629529441969</title>
<polygon fill="lightgrey" stroke="black" points="252,-167 144,-167 144,-131 252,-131 252,-167"/>
<text text-anchor="middle" x="198" y="-151.6" font-family="Times,serif" font-size="8.00">Notes on sequential</text>
<text text-anchor="middle" x="198" y="-142.6" font-family="Times,serif" font-size="8.00">Monte Carlo</text>
</g>
<!-- 840031216919356538 -->
<g id="node4" class="node">
<title>840031216919356538</title>
<polygon fill="lightgrey" stroke="black" points="396,-144 288,-144 288,-108 396,-108 396,-144"/>
<text text-anchor="middle" x="342" y="-128.6" font-family="Times,serif" font-size="8.00">The unreasonable effectiveness</text>
<text text-anchor="middle" x="342" y="-119.6" font-family="Times,serif" font-size="8.00">of rejuvenation move SMC</text>
</g>
<!-- 35698629529441969&#45;&gt;840031216919356538 -->
<g id="edge1" class="edge">
<title>35698629529441969&#45;&gt;840031216919356538</title>
<path fill="none" stroke="black" d="M252.28,-140.37C260.65,-139.01 269.37,-137.6 277.94,-136.21"/>
<polygon fill="black" stroke="black" points="278.58,-139.66 287.89,-134.6 277.46,-132.75 278.58,-139.66"/>
</g>
<!-- 52629313488915159 -->
<g id="node5" class="node">
<title>52629313488915159</title>
<polygon fill="lightgrey" stroke="black" points="108,-198 0,-198 0,-162 108,-162 108,-198"/>
<text text-anchor="middle" x="54" y="-182.6" font-family="Times,serif" font-size="8.00">Things I want</text>
<text text-anchor="middle" x="54" y="-173.6" font-family="Times,serif" font-size="8.00">in a compiler</text>
</g>
<!-- 329922244094190251 -->
<g id="node6" class="node">
<title>329922244094190251</title>
<polygon fill="lightgrey" stroke="black" points="108,-144 0,-144 0,-108 108,-108 108,-144"/>
<text text-anchor="middle" x="54" y="-128.6" font-family="Times,serif" font-size="8.00">AIDE: towards automatic</text>
<text text-anchor="middle" x="54" y="-119.6" font-family="Times,serif" font-size="8.00">inference tuning</text>
</g>
<!-- 329922244094190251&#45;&gt;35698629529441969 -->
<g id="edge3" class="edge">
<title>329922244094190251&#45;&gt;35698629529441969</title>
<path fill="none" stroke="black" d="M108.28,-134.63C116.65,-135.99 125.37,-137.4 133.94,-138.79"/>
<polygon fill="black" stroke="black" points="133.46,-142.25 143.89,-140.4 134.58,-135.34 133.46,-142.25"/>
</g>
<!-- 329922244094190251&#45;&gt;840031216919356538 -->
<g id="edge2" class="edge">
<title>329922244094190251&#45;&gt;840031216919356538</title>
<path fill="none" stroke="black" d="M108.17,-123.22C119.96,-122.71 132.4,-122.26 144,-122 191.99,-120.92 204.01,-120.92 252,-122 260.34,-122.19 269.11,-122.47 277.76,-122.81"/>
<polygon fill="black" stroke="black" points="277.7,-126.31 287.83,-123.22 277.98,-119.31 277.7,-126.31"/>
</g>
</g>
</svg>
