<?xml version="1.0" encoding="UTF-8" standalone="no"?>
<!DOCTYPE svg PUBLIC "-//W3C//DTD SVG 1.1//EN"
 "http://www.w3.org/Graphics/SVG/1.1/DTD/svg11.dtd">
<!-- Generated by graphviz version 2.50.0 (20211204.2007)
 -->
<!-- Title: G Pages: 1 -->
<svg width="800pt" height="188pt"
 viewBox="0.00 0.00 800.00 188.00" xmlns="http://www.w3.org/2000/svg" xmlns:xlink="http://www.w3.org/1999/xlink">
<g id="graph0" class="graph" transform="scale(1 1) rotate(0) translate(4 184)">
<title>G</title>
<polygon fill="transparent" stroke="transparent" points="-4,4 -4,-184 796,-184 796,4 -4,4"/>
<!-- 732177606909767725 -->
<g id="node1" class="node">
<title>732177606909767725</title>
<g id="a_node1"><a xlink:href="../notes/gadts.html" xlink:title="Generalized algebraic&#10;data types">
<polygon fill="lightgrey" stroke="black" points="144,-180 0,-180 0,-144 144,-144 144,-180"/>
<text text-anchor="middle" x="72" y="-165" font-family="Times,serif" font-size="10.00">Generalized algebraic</text>
<text text-anchor="middle" x="72" y="-154" font-family="Times,serif" font-size="10.00">data types</text>
</a>
</g>
</g>
<!-- 289035602837840169 -->
<g id="node2" class="node">
<title>289035602837840169</title>
<g id="a_node2"><a xlink:href="../notes/cpssa.html" xlink:title="Some thoughts about&#10;CPS &amp; SSA">
<polygon fill="lightgrey" stroke="black" points="306,-180 162,-180 162,-144 306,-144 306,-180"/>
<text text-anchor="middle" x="234" y="-165" font-family="Times,serif" font-size="10.00">Some thoughts about</text>
<text text-anchor="middle" x="234" y="-154" font-family="Times,serif" font-size="10.00">CPS &amp; SSA</text>
</a>
</g>
</g>
<!-- 35698629529441969 -->
<g id="node3" class="node">
<title>35698629529441969</title>
<g id="a_node3"><a xlink:href="../notes/smc_samplers.html" xlink:title="Notes on sequential&#10;Monte Carlo">
<polygon fill="lightgrey" stroke="black" points="418,-108 274,-108 274,-72 418,-72 418,-108"/>
<text text-anchor="middle" x="346" y="-93" font-family="Times,serif" font-size="10.00">Notes on sequential</text>
<text text-anchor="middle" x="346" y="-82" font-family="Times,serif" font-size="10.00">Monte Carlo</text>
</a>
</g>
</g>
<!-- 840031216919356538 -->
<g id="node4" class="node">
<title>840031216919356538</title>
<g id="a_node4"><a xlink:href="../notes/unreasonable_smc.html" xlink:title="The unreasonable effectiveness&#10;of rejuvenation move SMC">
<polygon fill="lightgrey" stroke="black" points="468,-36 324,-36 324,0 468,0 468,-36"/>
<text text-anchor="middle" x="396" y="-21" font-family="Times,serif" font-size="10.00">The unreasonable effectiveness</text>
<text text-anchor="middle" x="396" y="-10" font-family="Times,serif" font-size="10.00">of rejuvenation move SMC</text>
</a>
</g>
</g>
<!-- 35698629529441969&#45;&gt;840031216919356538 -->
<g id="edge1" class="edge">
<title>35698629529441969&#45;&gt;840031216919356538</title>
<path fill="none" stroke="black" d="M358.36,-71.7C364.23,-63.47 371.37,-53.48 377.84,-44.42"/>
<polygon fill="black" stroke="black" points="380.82,-46.28 383.78,-36.1 375.12,-42.21 380.82,-46.28"/>
</g>
<!-- 326700757350376793 -->
<g id="node5" class="node">
<title>326700757350376793</title>
<g id="a_node5"><a xlink:href="../notes/compiler_desires.html" xlink:title="Feelings about language&#10;and compiler implementations">
<polygon fill="lightgrey" stroke="black" points="630,-180 486,-180 486,-144 630,-144 630,-180"/>
<text text-anchor="middle" x="558" y="-165" font-family="Times,serif" font-size="10.00">Feelings about language</text>
<text text-anchor="middle" x="558" y="-154" font-family="Times,serif" font-size="10.00">and compiler implementations</text>
</a>
</g>
</g>
<!-- 329922244094190251 -->
<g id="node6" class="node">
<title>329922244094190251</title>
<g id="a_node6"><a xlink:href="../notes/aide.html" xlink:title="AIDE: towards automatic&#10;inference tuning">
<polygon fill="lightgrey" stroke="black" points="468,-180 324,-180 324,-144 468,-144 468,-180"/>
<text text-anchor="middle" x="396" y="-165" font-family="Times,serif" font-size="10.00">AIDE: towards automatic</text>
<text text-anchor="middle" x="396" y="-154" font-family="Times,serif" font-size="10.00">inference tuning</text>
</a>
</g>
</g>
<!-- 329922244094190251&#45;&gt;35698629529441969 -->
<g id="edge3" class="edge">
<title>329922244094190251&#45;&gt;35698629529441969</title>
<path fill="none" stroke="black" d="M383.64,-143.7C377.77,-135.47 370.63,-125.48 364.16,-116.42"/>
<polygon fill="black" stroke="black" points="366.88,-114.21 358.22,-108.1 361.18,-118.28 366.88,-114.21"/>
</g>
<!-- 329922244094190251&#45;&gt;840031216919356538 -->
<g id="edge2" class="edge">
<title>329922244094190251&#45;&gt;840031216919356538</title>
<path fill="none" stroke="black" d="M409.15,-143.91C415.92,-134.01 423.49,-120.96 427,-108 431.18,-92.56 431.18,-87.44 427,-72 424.42,-62.48 419.66,-52.92 414.62,-44.59"/>
<polygon fill="black" stroke="black" points="417.51,-42.6 409.15,-36.09 411.62,-46.39 417.51,-42.6"/>
</g>
<!-- 570372744497335187 -->
<g id="node7" class="node">
<title>570372744497335187</title>
<g id="a_node7"><a xlink:href="../notes/inference_calibration.html" xlink:title="Rank statistics and&#10;inference calibration">
<polygon fill="lightgrey" stroke="black" points="792,-180 648,-180 648,-144 792,-144 792,-180"/>
<text text-anchor="middle" x="720" y="-165" font-family="Times,serif" font-size="10.00">Rank statistics and</text>
<text text-anchor="middle" x="720" y="-154" font-family="Times,serif" font-size="10.00">inference calibration</text>
</a>
</g>
</g>
</g>
</svg>
