<?xml version="1.0" encoding="UTF-8" standalone="no"?>
<!DOCTYPE svg PUBLIC "-//W3C//DTD SVG 1.1//EN"
 "http://www.w3.org/Graphics/SVG/1.1/DTD/svg11.dtd">
<!-- Generated by graphviz version 2.50.0 (20211204.2007)
 -->
<!-- Title: G Pages: 1 -->
<svg width="870pt" height="188pt"
 viewBox="0.00 0.00 870.00 188.00" xmlns="http://www.w3.org/2000/svg" xmlns:xlink="http://www.w3.org/1999/xlink">
<g id="graph0" class="graph" transform="scale(1 1) rotate(0) translate(4 184)">
<title>G</title>
<polygon fill="transparent" stroke="transparent" points="-4,4 -4,-184 866,-184 866,4 -4,4"/>
<!-- 732177606909767725 -->
<g id="node1" class="node">
<title>732177606909767725</title>
<g id="a_node1"><a xlink:href="../notes/gadts.html" xlink:title="Generalized algebraic&#10;data types" target="_blank">
<polygon fill="lightgrey" stroke="black" points="158,-180 0,-180 0,-144 158,-144 158,-180"/>
<text text-anchor="middle" x="79" y="-165.4" font-family="Times,serif" font-size="12.00">Generalized algebraic</text>
<text text-anchor="middle" x="79" y="-152.4" font-family="Times,serif" font-size="12.00">data types</text>
</a>
</g>
</g>
<!-- 289035602837840169 -->
<g id="node2" class="node">
<title>289035602837840169</title>
<g id="a_node2"><a xlink:href="../notes/cpssa.html" xlink:title="Some thoughts about&#10;CPS &amp; SSA" target="_blank">
<polygon fill="lightgrey" stroke="black" points="334,-180 176,-180 176,-144 334,-144 334,-180"/>
<text text-anchor="middle" x="255" y="-165.4" font-family="Times,serif" font-size="12.00">Some thoughts about</text>
<text text-anchor="middle" x="255" y="-152.4" font-family="Times,serif" font-size="12.00">CPS &amp; SSA</text>
</a>
</g>
</g>
<!-- 35698629529441969 -->
<g id="node3" class="node">
<title>35698629529441969</title>
<g id="a_node3"><a xlink:href="../notes/smc_samplers.html" xlink:title="Notes on sequential&#10;Monte Carlo" target="_blank">
<polygon fill="lightgrey" stroke="black" points="456,-108 298,-108 298,-72 456,-72 456,-108"/>
<text text-anchor="middle" x="377" y="-93.4" font-family="Times,serif" font-size="12.00">Notes on sequential</text>
<text text-anchor="middle" x="377" y="-80.4" font-family="Times,serif" font-size="12.00">Monte Carlo</text>
</a>
</g>
</g>
<!-- 840031216919356538 -->
<g id="node4" class="node">
<title>840031216919356538</title>
<g id="a_node4"><a xlink:href="../notes/unreasonable_smc.html" xlink:title="The unreasonable effectiveness&#10;of rejuvenation move SMC" target="_blank">
<polygon fill="lightgrey" stroke="black" points="509,-36 351,-36 351,0 509,0 509,-36"/>
<text text-anchor="middle" x="430" y="-21.4" font-family="Times,serif" font-size="12.00">The unreasonable effectiveness</text>
<text text-anchor="middle" x="430" y="-8.4" font-family="Times,serif" font-size="12.00">of rejuvenation move SMC</text>
</a>
</g>
</g>
<!-- 35698629529441969&#45;&gt;840031216919356538 -->
<g id="edge1" class="edge">
<title>35698629529441969&#45;&gt;840031216919356538</title>
<path fill="none" stroke="black" d="M390.1,-71.7C396.39,-63.39 404.05,-53.28 410.96,-44.14"/>
<polygon fill="black" stroke="black" points="413.8,-46.19 417.05,-36.1 408.22,-41.96 413.8,-46.19"/>
</g>
<!-- 326700757350376793 -->
<g id="node5" class="node">
<title>326700757350376793</title>
<g id="a_node5"><a xlink:href="../notes/compiler_desires.html" xlink:title="Feelings about language&#10;and compiler implementations" target="_blank">
<polygon fill="lightgrey" stroke="black" points="686,-180 528,-180 528,-144 686,-144 686,-180"/>
<text text-anchor="middle" x="607" y="-165.4" font-family="Times,serif" font-size="12.00">Feelings about language</text>
<text text-anchor="middle" x="607" y="-152.4" font-family="Times,serif" font-size="12.00">and compiler implementations</text>
</a>
</g>
</g>
<!-- 329922244094190251 -->
<g id="node6" class="node">
<title>329922244094190251</title>
<g id="a_node6"><a xlink:href="../notes/aide.html" xlink:title="AIDE: towards automatic&#10;inference tuning" target="_blank">
<polygon fill="lightgrey" stroke="black" points="510,-180 352,-180 352,-144 510,-144 510,-180"/>
<text text-anchor="middle" x="431" y="-165.4" font-family="Times,serif" font-size="12.00">AIDE: towards automatic</text>
<text text-anchor="middle" x="431" y="-152.4" font-family="Times,serif" font-size="12.00">inference tuning</text>
</a>
</g>
</g>
<!-- 329922244094190251&#45;&gt;35698629529441969 -->
<g id="edge3" class="edge">
<title>329922244094190251&#45;&gt;35698629529441969</title>
<path fill="none" stroke="black" d="M417.65,-143.7C411.24,-135.39 403.44,-125.28 396.39,-116.14"/>
<polygon fill="black" stroke="black" points="399.07,-113.88 390.19,-108.1 393.53,-118.16 399.07,-113.88"/>
</g>
<!-- 329922244094190251&#45;&gt;840031216919356538 -->
<g id="edge2" class="edge">
<title>329922244094190251&#45;&gt;840031216919356538</title>
<path fill="none" stroke="black" d="M445.75,-143.63C453.09,-133.85 461.19,-121.01 465,-108 469.5,-92.65 469.6,-87.32 465,-72 462.08,-62.28 456.74,-52.7 451.09,-44.41"/>
<polygon fill="black" stroke="black" points="453.9,-42.32 445.18,-36.3 448.24,-46.44 453.9,-42.32"/>
</g>
<!-- 570372744497335187 -->
<g id="node7" class="node">
<title>570372744497335187</title>
<g id="a_node7"><a xlink:href="../notes/inference_calibration.html" xlink:title="Rank statistics and&#10;inference calibration" target="_blank">
<polygon fill="lightgrey" stroke="black" points="862,-180 704,-180 704,-144 862,-144 862,-180"/>
<text text-anchor="middle" x="783" y="-165.4" font-family="Times,serif" font-size="12.00">Rank statistics and</text>
<text text-anchor="middle" x="783" y="-152.4" font-family="Times,serif" font-size="12.00">inference calibration</text>
</a>
</g>
</g>
</g>
</svg>
