<?xml version="1.0" encoding="UTF-8" standalone="no"?>
<!DOCTYPE svg PUBLIC "-//W3C//DTD SVG 1.1//EN"
 "http://www.w3.org/Graphics/SVG/1.1/DTD/svg11.dtd">
<!-- Generated by graphviz version 2.50.0 (20211204.2007)
 -->
<!-- Title: G Pages: 1 -->
<svg width="645pt" height="188pt"
 viewBox="0.00 0.00 645.00 188.00" xmlns="http://www.w3.org/2000/svg" xmlns:xlink="http://www.w3.org/1999/xlink">
<g id="graph0" class="graph" transform="scale(1 1) rotate(0) translate(4 184)">
<title>G</title>
<polygon fill="transparent" stroke="transparent" points="-4,4 -4,-184 641,-184 641,4 -4,4"/>
<!-- 732177606909767725 -->
<g id="node1" class="node">
<title>732177606909767725</title>
<g id="a_node1"><a xlink:href="../notes/gadts.html" xlink:title="Generalized algebraic&#10;data types" target="_blank">
<polygon fill="lightgrey" stroke="black" points="103,-180 0,-180 0,-144 103,-144 103,-180"/>
<text text-anchor="middle" x="51.5" y="-165.4" font-family="Times,serif" font-size="12.00">Generalized algebraic</text>
<text text-anchor="middle" x="51.5" y="-152.4" font-family="Times,serif" font-size="12.00">data types</text>
</a>
</g>
</g>
<!-- 289035602837840169 -->
<g id="node2" class="node">
<title>289035602837840169</title>
<g id="a_node2"><a xlink:href="../notes/cpssa.html" xlink:title="Some thoughts about&#10;CPS &amp; SSA" target="_blank">
<polygon fill="lightgrey" stroke="black" points="221.5,-180 121.5,-180 121.5,-144 221.5,-144 221.5,-180"/>
<text text-anchor="middle" x="171.5" y="-165.4" font-family="Times,serif" font-size="12.00">Some thoughts about</text>
<text text-anchor="middle" x="171.5" y="-152.4" font-family="Times,serif" font-size="12.00">CPS &amp; SSA</text>
</a>
</g>
</g>
<!-- 35698629529441969 -->
<g id="node3" class="node">
<title>35698629529441969</title>
<g id="a_node3"><a xlink:href="../notes/smc_samplers.html" xlink:title="Notes on sequential&#10;Monte Carlo" target="_blank">
<polygon fill="lightgrey" stroke="black" points="309.5,-108 215.5,-108 215.5,-72 309.5,-72 309.5,-108"/>
<text text-anchor="middle" x="262.5" y="-93.4" font-family="Times,serif" font-size="12.00">Notes on sequential</text>
<text text-anchor="middle" x="262.5" y="-80.4" font-family="Times,serif" font-size="12.00">Monte Carlo</text>
</a>
</g>
</g>
<!-- 840031216919356538 -->
<g id="node4" class="node">
<title>840031216919356538</title>
<g id="a_node4"><a xlink:href="../notes/unreasonable_smc.html" xlink:title="The unreasonable effectiveness&#10;of rejuvenation move SMC" target="_blank">
<polygon fill="lightgrey" stroke="black" points="373.5,-36 225.5,-36 225.5,0 373.5,0 373.5,-36"/>
<text text-anchor="middle" x="299.5" y="-21.4" font-family="Times,serif" font-size="12.00">The unreasonable effectiveness</text>
<text text-anchor="middle" x="299.5" y="-8.4" font-family="Times,serif" font-size="12.00">of rejuvenation move SMC</text>
</a>
</g>
</g>
<!-- 35698629529441969&#45;&gt;840031216919356538 -->
<g id="edge1" class="edge">
<title>35698629529441969&#45;&gt;840031216919356538</title>
<path fill="none" stroke="black" d="M271.65,-71.7C275.9,-63.64 281.06,-53.89 285.77,-44.98"/>
<polygon fill="black" stroke="black" points="288.88,-46.58 290.46,-36.1 282.69,-43.31 288.88,-46.58"/>
</g>
<!-- 326700757350376793 -->
<g id="node5" class="node">
<title>326700757350376793</title>
<g id="a_node5"><a xlink:href="../notes/compiler_desires.html" xlink:title="Feelings about language&#10;and compiler implementations" target="_blank">
<polygon fill="lightgrey" stroke="black" points="521.5,-180 379.5,-180 379.5,-144 521.5,-144 521.5,-180"/>
<text text-anchor="middle" x="450.5" y="-165.4" font-family="Times,serif" font-size="12.00">Feelings about language</text>
<text text-anchor="middle" x="450.5" y="-152.4" font-family="Times,serif" font-size="12.00">and compiler implementations</text>
</a>
</g>
</g>
<!-- 329922244094190251 -->
<g id="node6" class="node">
<title>329922244094190251</title>
<g id="a_node6"><a xlink:href="../notes/aide.html" xlink:title="AIDE: towards automatic&#10;inference tuning" target="_blank">
<polygon fill="lightgrey" stroke="black" points="361.5,-180 239.5,-180 239.5,-144 361.5,-144 361.5,-180"/>
<text text-anchor="middle" x="300.5" y="-165.4" font-family="Times,serif" font-size="12.00">AIDE: towards automatic</text>
<text text-anchor="middle" x="300.5" y="-152.4" font-family="Times,serif" font-size="12.00">inference tuning</text>
</a>
</g>
</g>
<!-- 329922244094190251&#45;&gt;35698629529441969 -->
<g id="edge3" class="edge">
<title>329922244094190251&#45;&gt;35698629529441969</title>
<path fill="none" stroke="black" d="M291.11,-143.7C286.74,-135.64 281.44,-125.89 276.6,-116.98"/>
<polygon fill="black" stroke="black" points="279.63,-115.22 271.79,-108.1 273.48,-118.56 279.63,-115.22"/>
</g>
<!-- 329922244094190251&#45;&gt;840031216919356538 -->
<g id="edge2" class="edge">
<title>329922244094190251&#45;&gt;840031216919356538</title>
<path fill="none" stroke="black" d="M307.98,-143.7C311.97,-133.52 316.47,-120.27 318.5,-108 321.11,-92.21 321.24,-87.76 318.5,-72 316.98,-63.24 314.14,-54.01 311.11,-45.75"/>
<polygon fill="black" stroke="black" points="314.29,-44.29 307.39,-36.25 307.78,-46.84 314.29,-44.29"/>
</g>
<!-- 570372744497335187 -->
<g id="node7" class="node">
<title>570372744497335187</title>
<g id="a_node7"><a xlink:href="../notes/inference_calibration.html" xlink:title="Rank statistics and&#10;inference calibration" target="_blank">
<polygon fill="lightgrey" stroke="black" points="637,-180 540,-180 540,-144 637,-144 637,-180"/>
<text text-anchor="middle" x="588.5" y="-165.4" font-family="Times,serif" font-size="12.00">Rank statistics and</text>
<text text-anchor="middle" x="588.5" y="-152.4" font-family="Times,serif" font-size="12.00">inference calibration</text>
</a>
</g>
</g>
</g>
</svg>
