<?xml version="1.0" encoding="UTF-8" standalone="no"?>
<!DOCTYPE svg PUBLIC "-//W3C//DTD SVG 1.1//EN"
 "http://www.w3.org/Graphics/SVG/1.1/DTD/svg11.dtd">
<!-- Generated by graphviz version 2.50.0 (20211204.2007)
 -->
<!-- Title: G Pages: 1 -->
<svg width="368pt" height="116pt"
 viewBox="0.00 0.00 368.00 116.00" xmlns="http://www.w3.org/2000/svg" xmlns:xlink="http://www.w3.org/1999/xlink">
<g id="graph0" class="graph" transform="scale(1 1) rotate(0) translate(4 112)">
<title>G</title>
<polygon fill="transparent" stroke="transparent" points="-4,4 -4,-112 364,-112 364,4 -4,4"/>
<!-- 1066585538481301141 -->
<g id="node1" class="node">
<title>1066585538481301141</title>
<polygon fill="lightgrey" stroke="black" points="108,-108 0,-108 0,-72 108,-72 108,-108"/>
<text text-anchor="middle" x="54" y="-92.6" font-family="Times,serif" font-size="8.00">Generalize algebraic</text>
<text text-anchor="middle" x="54" y="-83.6" font-family="Times,serif" font-size="8.00">data types</text>
</g>
<!-- 289035602837840169 -->
<g id="node2" class="node">
<title>289035602837840169</title>
<polygon fill="lightgrey" stroke="black" points="234,-108 126,-108 126,-72 234,-72 234,-108"/>
<text text-anchor="middle" x="180" y="-92.6" font-family="Times,serif" font-size="8.00">Some thoughts about</text>
<text text-anchor="middle" x="180" y="-83.6" font-family="Times,serif" font-size="8.00">CPS &amp; SSA</text>
</g>
<!-- 35698629529441969 -->
<g id="node3" class="node">
<title>35698629529441969</title>
<polygon fill="lightgrey" stroke="black" points="360,-108 252,-108 252,-72 360,-72 360,-108"/>
<text text-anchor="middle" x="306" y="-92.6" font-family="Times,serif" font-size="8.00">Notes on sequential</text>
<text text-anchor="middle" x="306" y="-83.6" font-family="Times,serif" font-size="8.00">Monte Carlo</text>
</g>
<!-- 840031216919356538 -->
<g id="node4" class="node">
<title>840031216919356538</title>
<polygon fill="lightgrey" stroke="black" points="360,-36 252,-36 252,0 360,0 360,-36"/>
<text text-anchor="middle" x="306" y="-20.6" font-family="Times,serif" font-size="8.00">The unreasonable effectiveness</text>
<text text-anchor="middle" x="306" y="-11.6" font-family="Times,serif" font-size="8.00">of rejuvenation move SMC</text>
</g>
<!-- 35698629529441969&#45;&gt;840031216919356538 -->
<g id="edge1" class="edge">
<title>35698629529441969&#45;&gt;840031216919356538</title>
<path fill="none" stroke="black" d="M306,-71.7C306,-63.98 306,-54.71 306,-46.11"/>
<polygon fill="black" stroke="black" points="309.5,-46.1 306,-36.1 302.5,-46.1 309.5,-46.1"/>
</g>
</g>
</svg>
